<svg xmlns="http://www.w3.org/2000/svg" width="512" height="512" viewBox="0 0 512 512">
  <defs>
    <style>
      .cls-1 {
        fill-rule: evenodd;
      }
    </style>
  </defs>
  <path class="cls-1" d="M435.188,341.8c-2.576,47.3-46.095,90.73-93.391,93.391-43.348,1.974-128.585,1.974-171.933,0-47.3-2.575-90.73-46.1-93.391-93.391C74.5,298.447,74.5,213.21,76.559,169.862c2.575-47.211,46.094-90.73,93.305-93.306,43.348-2.059,128.671-2.059,171.933,0,47.3,2.576,90.729,46.095,93.391,93.392,1.974,43.348,1.974,128.585,0,171.933V341.8ZM256.13,185.313a70.816,70.816,0,1,0,70.817,70.817A70.776,70.776,0,0,0,256.13,185.313Zm95.8-58.885a34.421,34.421,0,1,0,34.421,34.421A34.417,34.417,0,0,0,351.925,126.428Z"/>
</svg>
