<svg xmlns="http://www.w3.org/2000/svg" width="512" height="512" viewBox="0 0 512 512">
  <defs>
    <style>
      .cls-1 {
        fill-rule: evenodd;
      }
    </style>
  </defs>
  <path id="Shape_10_copy_2" data-name="Shape 10 copy 2" class="cls-1" d="M335.6,261.005a5.648,5.648,0,0,0,0-9.578l-46.145-28.751a12.035,12.035,0,0,1-4.578-15.257,113.451,113.451,0,0,1,7.332-13.236v-0.46l0.219,0.129a112.729,112.729,0,0,1,94.624-51.6C451.3,142.251,503.03,196.26,500,261.685c-2.7,58.476-49.848,105.849-107.884,108.4A112.719,112.719,0,0,1,292.406,318.6l-0.219.129v-0.459a112.443,112.443,0,0,1-7.332-13.236,12.042,12.042,0,0,1,4.578-15.258l46.145-28.751Zm-11.874-47.667,50.561,31.437a13.18,13.18,0,0,1,.076,22.338l-50.637,31.963a7.868,7.868,0,0,0-1.988,11.618,84.36,84.36,0,0,0,65.333,30.994c47.932,0,86.58-40.094,84.756-88.809-1.7-45.166-38.849-81.6-83.7-82.135A84.341,84.341,0,0,0,321.9,201.536a7.936,7.936,0,0,0,1.842,11.8h-0.018Zm-147.866,38.3a5.65,5.65,0,0,0,0,9.576l46.1,28.746a12.041,12.041,0,0,1,4.573,15.255A113.442,113.442,0,0,1,219.2,318.45v0.46l-0.218-.129a112.586,112.586,0,0,1-94.525,51.593c-64.189,0-115.86-54-112.836-119.416,2.7-58.467,49.8-105.832,107.771-108.387A112.571,112.571,0,0,1,219,194.054l0.219-.129v0.459a112.505,112.505,0,0,1,7.324,13.234,12.047,12.047,0,0,1-4.573,15.256l-46.1,28.746ZM187.718,299.3L137.21,267.866a13.185,13.185,0,0,1-.076-22.335l50.584-31.958a7.871,7.871,0,0,0,1.985-11.616,84.241,84.241,0,0,0-65.264-30.989c-47.881,0-86.489,40.087-84.667,88.795,1.694,45.16,38.808,81.589,83.611,82.122A84.215,84.215,0,0,0,189.539,311.1a7.938,7.938,0,0,0-1.84-11.8h0.019Z"/>
</svg>
