<svg xmlns="http://www.w3.org/2000/svg" width="512" height="512" viewBox="0 0 512 512">
  <defs>
    <style>
      .cls-1 {
        fill-rule: evenodd;
      }
    </style>
  </defs>
  <path class="cls-1" d="M407.917,106.006c-1.926.712-4.33,0.508-5.622-1.058-41.323-50.631-163.136-28.264-149.924,78.216a3.756,3.756,0,0,1-3.852,4.382,267.188,267.188,0,0,1-105.146-27.5c-32.931-16.4-65.956-47.765-77.19-58.95a3.829,3.829,0,0,0-6.247,1.271C55.73,113.224,47.39,138.6,51.753,160.044c5.57,27.4,24.248,43.83,34.962,51.232a2.638,2.638,0,0,1-1.655,4.8,111.426,111.426,0,0,1-13.525-1.129c-7.215-1.088-14.441-5.064-19.6-8.541A3.99,3.99,0,0,0,45.7,210.29c2.572,14.549,10.328,42.539,33.119,61.593,13.264,11.092,31.037,17.04,42.542,19.957a2.49,2.49,0,0,1-.2,4.881,105.009,105.009,0,0,1-12.151,1.595c-9.359.53-20.958-1.148-28.454-2.511a3.7,3.7,0,0,0-3.967,5.45c5.956,10.29,19.011,29.5,38.679,40.781,17.272,9.912,36.617,12.5,47.82,13.116a3.4,3.4,0,0,1,1.915,6.141c-10.505,7.827-31.2,21.208-57.023,27.512-28.153,6.872-50.673,7.147-65.811,5.825a3.687,3.687,0,0,0-2.009,6.985c45.373,22.1,163.272,63.941,289.584-17.894,100.065-64.836,101.012-185.449,100.168-209.342a6.641,6.641,0,0,1,3.614-6.109c4.9-2.583,13.451-7.392,19.083-12.293a83.343,83.343,0,0,0,21.375-29.089,2.631,2.631,0,0,0-3.613-3.365,128.543,128.543,0,0,1-26.092,9.069c-2.675.621-6.027,1.18-9.265,1.647a2.433,2.433,0,0,1-1.76-4.421c5.591-3.753,12.421-9.132,17.273-15.526a66.7,66.7,0,0,0,11.452-23.719,2.65,2.65,0,0,0-3.529-3.081c-16.543,6.06-41.677,15.262-50.516,18.5Z"/>
</svg>
