<svg id="Logo_X" data-name="Logo X" xmlns="http://www.w3.org/2000/svg" xmlns:xlink="http://www.w3.org/1999/xlink" width="1000" height="158" viewBox="0 0 1000 158">
  <defs>
    <style>
      .cls-1, .cls-4 {
        fill: #f1f6f7;
      }

      .cls-1, .cls-2, .cls-3, .cls-4 {
        fill-rule: evenodd;
      }

      .cls-1 {
        filter: url(#filter);
      }

      .cls-2 {
        fill: #d8e2e4;
      }

      .cls-3 {
        fill: #fff;
      }

      .cls-4 {
        filter: url(#filter-2);
      }
    </style>
    <filter id="filter" x="-1" y="52" width="838" height="88" filterUnits="userSpaceOnUse">
      <feOffset result="offset" dx="-3" dy="5.196" in="SourceAlpha"/>
      <feGaussianBlur result="blur" stdDeviation="2.828"/>
      <feFlood result="flood" flood-opacity="0.35"/>
      <feComposite result="composite" operator="in" in2="blur"/>
      <feBlend result="blend" in="SourceGraphic"/>
    </filter>
    <filter id="filter-2" x="797" y="-1" width="205" height="161" filterUnits="userSpaceOnUse">
      <feOffset result="offset" dx="-3" dy="5.196" in="SourceAlpha"/>
      <feGaussianBlur result="blur" stdDeviation="2.828"/>
      <feFlood result="flood" flood-opacity="0.35"/>
      <feComposite result="composite" operator="in" in2="blur"/>
      <feBlend result="blend" in="SourceGraphic"/>
    </filter>
  </defs>
  <path id="BattlespaceX" class="cls-1" d="M831.914,55.378l-5.74,16.906a1.5,1.5,0,0,1-1.422,1.017s-58.442.034-65.993,0.034a0.536,0.536,0,0,1-.438-0.791c0.032-.088,4.747-13.747,5.891-17.059a1.066,1.066,0,0,1,1.011-.717h66.252A0.462,0.462,0,0,1,831.914,55.378Zm-8.967,26.411L817.2,98.72a1.483,1.483,0,0,1-1.406,1H749.919a0.591,0.591,0,0,1-.556-0.75c0.019-.065,5.844-17.2,5.853-17.225h0a1.479,1.479,0,0,1,1.167-.57h66.125A0.462,0.462,0,0,1,822.947,81.788Zm-77.876-9.16a1.17,1.17,0,0,1-.95.714l-43.3.023a1.665,1.665,0,0,0-1.577,1.128l-10.969,32.3a0.522,0.522,0,0,0,.5.688h124.8a0.462,0.462,0,0,1,.439.61l-3.179,9.361a3.717,3.717,0,0,1-.964,1.5l-6.346,6.013a3.885,3.885,0,0,1-2.674,1.066l-147.952.044a0.61,0.61,0,0,1-.564-0.377l-16.275-39.17a0.464,0.464,0,0,0-.741-0.164l-42.588,38.835a3.35,3.35,0,0,1-2.259.875H568.965a0.462,0.462,0,0,1-.313-0.8l76.806-70.067a0.464,0.464,0,0,1,.741.165l21.183,51.237a0.338,0.338,0,0,0,.632-0.021l17.225-50.734a1.614,1.614,0,0,1,1.529-1.093h63.395a0.729,0.729,0,0,1,.7.963C749.59,59.438,745.086,72.584,745.071,72.628Zm-157.2,26.02a1.591,1.591,0,0,1-1.507,1.077H543.011a1.154,1.154,0,0,0-1.094.782l-8.341,24.566a1.492,1.492,0,0,1-1.413,1.011H513.546a0.462,0.462,0,0,1-.439-0.61L527.672,82.54a2.086,2.086,0,0,1,1.976-1.413h43.29a0.793,0.793,0,0,0,.751-0.536l2.289-6.727a0.377,0.377,0,0,0-.358-0.5H478.472a0.655,0.655,0,0,0-.621.444l-2.328,6.838a0.362,0.362,0,0,0,.344.478h38.118a0.461,0.461,0,0,1,.438.61l-14.748,43.337a1.491,1.491,0,0,1-1.413,1.01H301.513a0.463,0.463,0,0,1-.439-0.61l17.486-51.5a0.462,0.462,0,0,0-.439-0.61H282.835a0.463,0.463,0,0,0-.439.314l-17.449,51.393a1.494,1.494,0,0,1-1.414,1.011H244.916a0.462,0.462,0,0,1-.438-0.61l17.485-51.5a0.461,0.461,0,0,0-.438-0.61h-35.4a1.184,1.184,0,0,0-1.121.8l-17.284,50.906a1.491,1.491,0,0,1-1.413,1.011H171.168a1.956,1.956,0,0,1-1.805-1.2L153.341,86.317a0.464,0.464,0,0,0-.742-0.163l-42.484,39.038a3.393,3.393,0,0,1-2.291.892h-97.8a0.462,0.462,0,0,1-.439-0.609L15.395,108.3a1.2,1.2,0,0,1,1.141-.817H72.178a0.907,0.907,0,0,0,.86-0.615l2.211-6.512a0.481,0.481,0,0,0-.457-0.634H19.281a0.706,0.706,0,0,1-.671-0.931l5.7-16.852a1.2,1.2,0,0,1,1.139-.815H92.983a0.908,0.908,0,0,0,.86-0.615L96.054,74a0.481,0.481,0,0,0-.457-0.635H28.275a0.763,0.763,0,0,1-.724-1.006l5.6-16.561a1.492,1.492,0,0,1,1.414-1.013l87.427-.018a0.694,0.694,0,0,1,.659.916l-17.037,50.175a0.611,0.611,0,0,0,.992.645l56.066-51.148a0.613,0.613,0,0,1,.979.217l25.687,62.131a0.3,0.3,0,0,0,.551-0.018l14.782-43.581a0.462,0.462,0,0,0-.439-0.61h-15.59a1.578,1.578,0,0,1-1.46-.975l-6.824-16.532a0.73,0.73,0,0,1,.675-1.007l163.734-.213a0.462,0.462,0,0,1,.439.61l-17.6,51.847a0.2,0.2,0,0,0,.187.26H484.326a1.4,1.4,0,0,0,1.324-.946l1.964-5.772a0.79,0.79,0,0,0-.75-1.043H445.83a0.751,0.751,0,0,1-.713-0.991l14.821-43.652a0.463,0.463,0,0,1,.439-0.314H602.163a0.462,0.462,0,0,1,.439.61ZM442.379,72.284a1.5,1.5,0,0,1-1.422,1.017s-58.441.034-65.992,0.034a0.537,0.537,0,0,1-.439-0.791c0.032-.088,4.748-13.747,5.891-17.059a1.067,1.067,0,0,1,1.011-.717h66.253a0.462,0.462,0,0,1,.439.61Zm-3.227,9.5L433.4,98.72a1.484,1.484,0,0,1-1.406,1H366.125a0.592,0.592,0,0,1-.557-0.75c0.02-.065,5.844-17.2,5.853-17.225h0a1.477,1.477,0,0,1,1.166-.57h66.126A0.461,0.461,0,0,1,439.152,81.788Z"/>
  <path id="Bottom_Shadow" data-name="Bottom Shadow" class="cls-2" d="M592.732,125.209a3.352,3.352,0,0,1-2.259.875H568.965a0.462,0.462,0,0,1-.313-0.8l7.758-7.077h24Zm-59.156-.136a1.492,1.492,0,0,1-1.413,1.011H513.546a0.462,0.462,0,0,1-.439-0.61l2.466-7.27h20.335Zm-33.9,0a1.491,1.491,0,0,1-1.413,1.01H301.513a0.463,0.463,0,0,1-.439-0.61l2.468-7.27H502.013Zm-291.958,0a1.492,1.492,0,0,1-1.413,1.011H171.168a1.956,1.956,0,0,1-1.805-1.2l-2.774-6.678h43.46Zm57.229,0a1.491,1.491,0,0,1-1.413,1.011H244.916a0.462,0.462,0,0,1-.438-0.61l2.468-7.27h20.333Zm-154.831.119a3.388,3.388,0,0,1-2.291.892h-97.8a0.462,0.462,0,0,1-.439-0.609l2.459-7.272H117.719Zm693.411-.218a3.885,3.885,0,0,1-2.674,1.066l-147.952.044a0.61,0.61,0,0,1-.564-0.377l-3.118-7.5H810.483a3.7,3.7,0,0,1-.611.757Z"/>
  <path id="Top_Shadow" data-name="Top Shadow" class="cls-3" d="M646.2,55.379l3,7.27h-11.9l8.15-7.434A0.464,0.464,0,0,1,646.2,55.379Zm-482.548.2,2.924,7.075h-11.9l7.993-7.292A0.613,0.613,0,0,1,163.651,55.574ZM34.565,54.787l87.426-.018a0.693,0.693,0,0,1,.659.916l-2.364,6.965H30.834L33.151,55.8A1.492,1.492,0,0,1,34.565,54.787Zm345.98,0.442a0.68,0.68,0,0,1,.644-0.461h66.695a0.461,0.461,0,0,1,.438.61l-2.468,7.271H378.026Zm79.393-.147a0.463,0.463,0,0,1,.439-0.314H602.163a0.462,0.462,0,0,1,.438.61l-2.475,7.27H457.369Zm225.3,0.779a1.614,1.614,0,0,1,1.529-1.093h63.395a0.729,0.729,0,0,1,.7.963c-0.473,1.383-1.4,4.078-2.369,6.917H682.935ZM180.205,55.62a0.462,0.462,0,0,1,.428-0.637l164.134-.214a0.462,0.462,0,0,1,.439.61l-2.468,7.27H183.106Zm584.007-.134a1.066,1.066,0,0,1,1.011-.717h66.252a0.462,0.462,0,0,1,.439.61l-2.469,7.271H761.739C762.78,59.633,763.766,56.775,764.212,55.485Z"/>
  <path id="X" class="cls-4" d="M996.65,3.085L866.964,126.045a8.244,8.244,0,0,1-1.834,1.419,16.477,16.477,0,0,1-2.707,1.135l-51.9,17.512a1.331,1.331,0,0,1-1.53-.4l-1.28-1.9a1.24,1.24,0,0,1,.249-1.638l68.507-52.129a0.535,0.535,0,0,0,.035-0.818l-33.15-30.01a0.684,0.684,0,0,1,0-1l3.1-2.866a1.782,1.782,0,0,1,1.212-.476l31.68,0.032a2.982,2.982,0,0,1,2.232.844l18.234,15.843a0.9,0.9,0,0,0,1.136.043L995.007,1.316a0.515,0.515,0,0,1,.742.069l1.018,1.12A0.439,0.439,0,0,1,996.65,3.085ZM921.719,92.133l32.25,29.759a1.124,1.124,0,0,1,.02,1.627l-2.57,2.493a2.728,2.728,0,0,1-1.9.774l-31.56-.033a2.244,2.244,0,0,1-1.523-.6L901.32,112.135a0.917,0.917,0,0,1-.019-1.322l18.98-18.657A1.038,1.038,0,0,1,921.719,92.133Z"/>
  <path id="X-2" data-name="X" class="cls-2" d="M996.763,2.5a0.406,0.406,0,0,1-.094.568l-129.7,122.979a7.8,7.8,0,0,1-1.792,1.395,17.138,17.138,0,0,1-2.749,1.159l-20.993,7.076L885.1,98.523a3.152,3.152,0,0,0,.82-1.088l3.639-7.968a1.429,1.429,0,0,1,.6-0.654l17.171-9.7a3.047,3.047,0,0,0,.5-0.348L996.642,2.36Zm-153.312,56.8,11.856,2.826a2.72,2.72,0,0,1,1.047.508l26.994,21.255a0.529,0.529,0,0,1-.009.833l-6.794,5.277a0.569,0.569,0,0,0-.021-0.756C876.47,89.183,843.451,59.293,843.451,59.293Zm65.122,44.41,28.942,23.041-19.657-.02a2.24,2.24,0,0,1-1.522-.6l-14.969-13.989a0.917,0.917,0,0,1-.019-1.321Z"/>
</svg>
