<svg id="Logo_X" data-name="Logo X" xmlns="http://www.w3.org/2000/svg" xmlns:xlink="http://www.w3.org/1999/xlink" width="498" height="387" viewBox="0 0 498 387">
  <defs>
    <style>
      .cls-1 {
        fill: #21d6d1;
        filter: url(#filter);
      }

      .cls-1, .cls-2 {
        fill-rule: evenodd;
      }

      .cls-2 {
        fill: #069799;
      }
    </style>
    <filter id="filter" x="-2" y="-3" width="504" height="393" filterUnits="userSpaceOnUse">
      <feOffset result="offset" dx="-5" dy="8.66" in="SourceAlpha"/>
      <feGaussianBlur result="blur" stdDeviation="3.606"/>
      <feFlood result="flood" flood-opacity="0.24"/>
      <feComposite result="composite" operator="in" in2="blur"/>
      <feBlend result="blend" in="SourceGraphic"/>
    </filter>
  </defs>
  <path id="X" class="cls-1" d="M493.525,4.829L165.418,316.9a20.841,20.841,0,0,1-4.64,3.6,41.681,41.681,0,0,1-6.848,2.882l-131.3,44.443a3.363,3.363,0,0,1-3.871-1.016l-3.237-4.823a3.151,3.151,0,0,1,.63-4.157l173.323-132.3a1.36,1.36,0,0,0,.086-2.077L105.7,147.285a1.739,1.739,0,0,1-.014-2.549l7.835-7.274a4.5,4.5,0,0,1,3.065-1.209l80.152,0.082a7.53,7.53,0,0,1,5.646,2.142l46.132,40.209a2.277,2.277,0,0,0,2.875.109L489.367,0.341a1.3,1.3,0,0,1,1.878.175l2.575,2.842A1.116,1.116,0,0,1,493.525,4.829Zm-189.575,226,81.593,75.526a2.862,2.862,0,0,1,.05,4.131l-6.5,6.327a6.881,6.881,0,0,1-4.808,1.963l-79.846-.083a5.67,5.67,0,0,1-3.854-1.527L252.339,281.6a2.334,2.334,0,0,1-.048-3.353l48.02-47.352A2.622,2.622,0,0,1,303.95,230.832Z"/>
  <path id="X-2" data-name="X" class="cls-2" d="M493.81,3.339a1.033,1.033,0,0,1-.238,1.442L165.418,316.9a19.8,19.8,0,0,1-4.532,3.539,43.387,43.387,0,0,1-6.956,2.943L100.818,341.34,211.31,247.048a7.968,7.968,0,0,0,2.076-2.762l9.205-20.223a3.641,3.641,0,0,1,1.512-1.66l43.442-24.609a7.718,7.718,0,0,0,1.253-.883L493.505,2.99ZM105.931,147.484l30,7.173a6.86,6.86,0,0,1,2.648,1.288l68.3,53.945a1.343,1.343,0,0,1-.023,2.114L189.659,225.4a1.449,1.449,0,0,0-.053-1.92C189.47,223.343,105.931,147.484,105.931,147.484ZM270.689,260.2l73.223,58.478-49.732-.052a5.661,5.661,0,0,1-3.851-1.527l-37.872-35.5a2.336,2.336,0,0,1-.047-3.354Z"/>
</svg>
