<svg xmlns="http://www.w3.org/2000/svg" width="332" height="240" viewBox="0 0 332 240">
  <defs>
    <style>
      .cls-1 {
        fill: #fff;
        fill-rule: evenodd;
      }
    </style>
  </defs>
  <path class="cls-1" d="M136.6,110.443c8.279-3.846,14.473-8.8,18.691-14.835q6.275-9.068,6.275-22.665c0-8.371-1.4-15.452-4.19-21.106a34.992,34.992,0,0,0-11.953-13.721,52.635,52.635,0,0,0-18.5-7.42,114.63,114.63,0,0,0-23.893-2.282H16.686V208.293h88.773a94.529,94.529,0,0,0,23.933-3.028,64.278,64.278,0,0,0,20.837-9.328,46.129,46.129,0,0,0,14.486-16.289q5.329-9.9,5.332-23.58c0-11.253-2.723-20.851-8.286-28.872C156.226,119.228,147.879,113.625,136.6,110.443ZM57.014,59.056H94.742a55.168,55.168,0,0,1,10.37.887,25.394,25.394,0,0,1,8.877,3.158,16.527,16.527,0,0,1,6.214,6.257,21.045,21.045,0,0,1,2.249,10.329c0,7.537-2.249,13.033-6.887,16.359-4.687,3.378-10.6,5.043-17.746,5.043h-40.8V59.056Zm70.4,106.481a19.212,19.212,0,0,1-6.554,7.177,27.039,27.039,0,0,1-9.5,3.816,52.713,52.713,0,0,1-11.308,1.126H57.014V128.123h43.84c8.68,0,15.736,1.961,21.027,5.9,5.284,4,7.939,10.579,7.939,19.851C129.82,158.606,129.039,162.522,127.41,165.537Zm184.263-42.751a70.094,70.094,0,0,0-11.655-24.72,58.465,58.465,0,0,0-20.68-17.26c-8.422-4.319-18.249-6.44-29.469-6.44a70.024,70.024,0,0,0-27.656,5.3,65.781,65.781,0,0,0-21.488,14.524,63.822,63.822,0,0,0-13.889,21.825,75.232,75.232,0,0,0-4.9,27.245,78.306,78.306,0,0,0,4.761,27.762,63.891,63.891,0,0,0,13.468,21.706,60.243,60.243,0,0,0,21.414,14,77.6,77.6,0,0,0,28.287,4.932c14.989,0,27.853-3.372,38.4-10.138,10.669-6.738,18.493-17.93,23.648-33.609H279.841c-1.244,4.033-4.456,7.915-9.733,11.546a32.932,32.932,0,0,1-19.023,5.46c-10.215,0-18.1-2.631-23.553-7.865-5.475-5.233-9.019-14.98-9.019-25.276h95.693A90.688,90.688,0,0,0,311.673,122.786Zm-93.16,6.451a40.1,40.1,0,0,1,1.663-8.585,25.5,25.5,0,0,1,4.883-9.175,29.165,29.165,0,0,1,9.224-7.177c3.857-1.961,8.672-2.922,14.492-2.922,8.946,0,16.281,2.546,20.606,7.251,4.347,4.742,7.525,11.486,8.4,20.608H218.513ZM285.3,40.481H211.062v17.75H285.3V40.481Z"/>
</svg>
