<svg xmlns="http://www.w3.org/2000/svg" width="238" height="240" viewBox="0 0 238 240">
  <defs>
    <style>
      .cls-1 {
        fill: #fff;
        fill-rule: evenodd;
      }
    </style>
  </defs>
  <path class="cls-1" d="M193.117,229.167H44.55A34.55,34.55,0,0,1,10,194.617V46.05A34.55,34.55,0,0,1,44.55,11.5H193.117a34.55,34.55,0,0,1,34.55,34.55V194.617A34.551,34.551,0,0,1,193.117,229.167ZM76.139,84.549a35.784,35.784,0,1,0,35.784,35.785A35.784,35.784,0,0,0,76.139,84.549Zm85.389,0a35.784,35.784,0,1,0,35.784,35.785A35.784,35.784,0,0,0,161.528,84.549Z"/>
</svg>
