<svg xmlns="http://www.w3.org/2000/svg" width="238" height="240" viewBox="0 0 238 240">
  <defs>
    <style>
      .cls-1 {
        fill: #fff;
        fill-rule: evenodd;
      }
    </style>
  </defs>
  <path class="cls-1" d="M228.364,164.957c-0.511,11.747-2.361,19.78-5.081,26.8a56.43,56.43,0,0,1-32.231,32.361c-7.021,2.741-15.039,4.623-26.79,5.185-11.779.558-15.539,0.69-45.535,0.748-29.981.057-33.741-.058-45.521-0.576-11.754-.516-19.787-2.366-26.811-5.081a54.171,54.171,0,0,1-19.587-12.7,54.064,54.064,0,0,1-12.774-19.537c-2.748-7.017-4.623-15.039-5.185-26.787-0.562-11.783-.694-15.547-0.751-45.532S8.16,86.1,8.675,74.318C9.194,62.56,11.037,54.531,13.756,47.5a54.115,54.115,0,0,1,12.7-19.583,54.019,54.019,0,0,1,19.536-12.77c7.013-2.748,15.039-4.63,26.789-5.185,11.779-.565,15.54-0.694,45.524-0.751s33.753,0.057,45.532.58c11.754,0.508,19.784,2.362,26.811,5.081a54.055,54.055,0,0,1,19.587,12.7A54.185,54.185,0,0,1,223.008,47.1c2.744,7.02,4.626,15.039,5.185,26.8,0.558,11.776.694,15.533,0.751,45.522S228.879,153.17,228.364,164.957Zm-19.314-45.5c-0.054-29.481-.179-32.973-0.734-44.62C207.808,64.077,206,58.23,204.48,54.348a34.192,34.192,0,0,0-8.286-12.688,34.186,34.186,0,0,0-12.717-8.237c-3.89-1.506-9.743-3.288-20.5-3.757-11.65-.512-15.143-0.616-44.63-0.558s-32.968.175-44.615,0.726c-10.763.512-16.6,2.319-20.5,3.839a34.213,34.213,0,0,0-12.684,8.283,34.266,34.266,0,0,0-8.237,12.717c-1.5,3.893-3.3,9.747-3.757,20.507C28.047,86.831,27.94,90.323,28,119.8s0.179,32.98.726,44.62c0.5,10.766,2.326,16.606,3.839,20.5a34.317,34.317,0,0,0,8.283,12.681,34.426,34.426,0,0,0,12.717,8.237c3.9,1.5,9.743,3.288,20.51,3.757,11.65,0.5,15.139.615,44.619,0.558s32.98-.179,44.627-0.726c10.756-.512,16.6-2.323,20.488-3.84a36.579,36.579,0,0,0,20.925-21c1.5-3.9,3.288-9.75,3.757-20.517C209,152.437,209.107,148.945,209.05,119.457ZM177.376,73.821A13.248,13.248,0,1,1,190.6,60.549,13.252,13.252,0,0,1,177.376,73.821ZM118.627,176.332a56.7,56.7,0,1,1,56.6-56.811A56.7,56.7,0,0,1,118.627,176.332Zm-0.179-93.509a36.809,36.809,0,1,0,36.883,36.737A36.812,36.812,0,0,0,118.448,82.823Z"/>
</svg>
