<svg xmlns="http://www.w3.org/2000/svg" width="500" height="132" viewBox="0 0 500 132">
  <defs>
    <style>
      .cls-1 {
        fill: #fff;
        fill-rule: evenodd;
      }
    </style>
  </defs>
  <path id="Logo" class="cls-1" d="M186.457,93.761a7.165,7.165,0,0,0-6.33,3.636c-1.652,3.324-13.4,27.773-14.717,30.516-1.138,2.375-2.634,1.1-2.251-.366,1.52-5.806,9.6-28.22,10.48-30.782,0.489-1.418.4-2.589-2.69-2.372-36.744,2.59-164.234,4.942-168.372,4.9-2.016-.02-1.79-1.752.158-2.056C13.6,95.547,167.6,83.721,171.9,83.325c4.792-.442,7.267-1.55,9.337-6.166s23.043-55.276,33.706-65.617c5.773-5.6,30.75-9.205,37.482-8.222,7.587,1.108,13.352,49.35,40.374,46.486,21.389-2.267,44.393-4.025,59.816-5.534,22.343-2.185,61.233-19.088,80.01-17.162,12.28,1.26,23.739,15.047,28.7,15.581,11.836,1.275,36.823,5.452,36.879,9.645C498.284,58.75,414.957,83.009,186.457,93.761Zm38.126-29.24c-2.12.221-2.308-1.511,0.011-2.105,8.905-2.282,38.763-9.512,37.978-18.3S244.605,40.1,242,31.306s8.934-18.778,2.374-18.794-18.87,2.83-22.471,7.093c-11.07,13.108-29.591,52.336-31.648,57.4-0.7,1.727-1.886,4.981,1.74,4.743,60.523-3.972,187.574-14.8,187.176-21.82C378.911,55.332,324.346,54.14,224.583,64.521Zm207.3-31.177c-11.16-.878-36.473,9.061-26.393,8.748,13.9-.432,28.092.381,41.326,1.156C451.467,43.519,438.885,33.894,431.881,33.343Z"/>
</svg>
