<svg xmlns="http://www.w3.org/2000/svg" width="500" height="132" viewBox="0 0 500 132">
  <defs>
    <style>
      .cls-1 {
        fill: #fff;
        fill-rule: evenodd;
      }
    </style>
  </defs>
  <path id="Logo" class="cls-1" d="M304.422,56.78a4.479,4.479,0,0,0-3.955,2.272c-1.032,2.077-8.374,17.353-9.195,19.067-0.711,1.484-1.646.687-1.406-.229,0.949-3.628,6-17.633,6.548-19.234,0.305-.886.247-1.618-1.681-1.482-22.959,1.619-102.618,3.088-105.2,3.063-1.26-.012-1.118-1.095.1-1.284,6.788-1.057,103.012-8.446,105.7-8.694,2.994-.276,4.54-0.969,5.834-3.853s14.4-34.538,21.06-41c3.607-3.5,19.213-5.752,23.42-5.137,4.741,0.693,8.343,30.835,25.226,29.045C384.231,27.9,398.6,26.8,408.241,25.858c13.96-1.366,38.26-11.927,49.992-10.723,7.673,0.787,14.833,9.4,17.93,9.735,7.395,0.8,23.008,3.407,23.043,6.026C499.259,34.9,447.2,50.062,304.422,56.78Zm23.822-18.27c-1.324.138-1.441-.944,0.007-1.315,5.565-1.426,24.22-5.943,23.73-11.436s-11.226-2.51-12.854-8,5.583-11.733,1.484-11.743S328.82,7.782,326.57,10.446c-6.917,8.19-18.489,32.7-19.775,35.862-0.438,1.079-1.178,3.112,1.088,2.964,37.816-2.482,117.2-9.248,116.952-13.633C424.673,32.769,390.579,32.024,328.244,38.51ZM457.769,19.03c-6.973-.549-22.789,5.661-16.491,5.466,8.687-.27,17.553.238,25.822,0.722C470.007,25.388,462.145,19.374,457.769,19.03Zm-250.5,65.962h29.537a11.893,11.893,0,0,1,11.622,14.344l-3.968,18.943a16.788,16.788,0,0,1-16.422,13.36H196.592a11.771,11.771,0,0,1-11.5-14.2l3.637-17.362A18.96,18.96,0,0,1,207.272,84.991Zm-2.511,34.085h19.433a4.778,4.778,0,0,0,4.674-3.8l2.953-14.094a3.083,3.083,0,0,0-3.012-3.718H209.376a4.778,4.778,0,0,0-4.674,3.8l-2.953,14.1A3.082,3.082,0,0,0,204.761,119.076ZM182.827,95.388a2.6,2.6,0,0,1-2.548,2.073h-20.81a5.148,5.148,0,0,0-5.035,4.1l-5.867,28.007a2.606,2.606,0,0,1-2.549,2.074h-12a1.716,1.716,0,0,1-1.676-2.069l6.177-29.49a18.961,18.961,0,0,1,18.547-15.089H182.9a1.715,1.715,0,0,1,1.676,2.069Zm-52.665,13.338a5.694,5.694,0,0,1-5.569,4.531h-38.7l-0.5,2.407a2.829,2.829,0,0,0,2.764,3.412h37.737a1.716,1.716,0,0,1,1.676,2.069l-1.894,9.04a1.714,1.714,0,0,1-1.673,1.364l-45.9.071A9.969,9.969,0,0,1,68.336,119.6l4.088-19.517A18.96,18.96,0,0,1,90.971,84.991h32.315A9.633,9.633,0,0,1,132.7,96.61ZM113.555,97.461H92.538a4.117,4.117,0,0,0-4.027,3.277l-0.552,2.635h27.1l0.674-3.222A2.23,2.23,0,0,0,113.555,97.461ZM59.209,127.007a5.82,5.82,0,0,1-5.693,4.632H8.306a7.819,7.819,0,0,1-7.641-9.431l1.795-8.569a12.9,12.9,0,0,1,12.619-10.266H47.935l0.575-2.746a2.625,2.625,0,0,0-2.565-3.166H7.958a1.715,1.715,0,0,1-1.676-2.069l1.744-8.328a2.605,2.605,0,0,1,2.549-2.073H53.712a11.626,11.626,0,0,1,11.36,14.022Zm-38.368-13.75a2.559,2.559,0,0,0-2.5,2.036l-0.288,1.376A2,2,0,0,0,20,119.076H42.1a3.133,3.133,0,0,0,3.065-2.493l0.7-3.326H20.841ZM256.1,98.614a17.117,17.117,0,0,1,16.744-13.623h40.6a1.715,1.715,0,0,1,1.676,2.069l-1.745,8.328a2.6,2.6,0,0,1-2.548,2.073H275.788a3.978,3.978,0,0,0-3.891,3.166l-3.118,14.884a2.956,2.956,0,0,0,2.889,3.565H306.3a1.715,1.715,0,0,1,1.676,2.069l-1.745,8.331a2.606,2.606,0,0,1-2.544,2.074l-40.195.065A11.619,11.619,0,0,1,252.117,117.6ZM322.7,87.065a2.607,2.607,0,0,1,2.549-2.073h12a1.714,1.714,0,0,1,1.676,2.069l-8.9,42.505a2.607,2.607,0,0,1-2.549,2.074h-12a1.716,1.716,0,0,1-1.676-2.069Zm16.567,34.085a2.6,2.6,0,0,1,2.548-2.074h38.991a2.736,2.736,0,0,0,2.676-2.177l0.338-1.614a1.681,1.681,0,0,0-1.643-2.028H350.3a7.623,7.623,0,0,1-7.448-9.194l1.47-7.02a15.144,15.144,0,0,1,14.814-12.052h45.15a1.715,1.715,0,0,1,1.676,2.069l-1.744,8.328a2.606,2.606,0,0,1-2.549,2.073h-38.99A2.737,2.737,0,0,0,360,99.639l-0.357,1.706a1.681,1.681,0,0,0,1.643,2.028H391.8a8.735,8.735,0,0,1,8.536,10.536l-2.09,9.978a9.624,9.624,0,0,1-9.414,7.659H339.2a1.715,1.715,0,0,1-1.676-2.068Zm71.458-21.07a18.96,18.96,0,0,1,18.546-15.089h47.534a12.107,12.107,0,0,1,11.831,14.6l-6.278,29.972a2.607,2.607,0,0,1-2.549,2.074h-12a1.715,1.715,0,0,1-1.676-2.069l5.771-27.553a3.777,3.777,0,0,0-3.69-4.556h-9.878l-6.725,32.1a2.606,2.606,0,0,1-2.549,2.074h-12a1.716,1.716,0,0,1-1.676-2.069l6.726-32.109h-9.875a5.84,5.84,0,0,0-5.713,4.649l-5.752,27.455a2.605,2.605,0,0,1-2.548,2.074h-12a1.715,1.715,0,0,1-1.676-2.069Z"/>
</svg>
