<svg xmlns="http://www.w3.org/2000/svg" width="800" height="141" viewBox="0 0 800 141">
  <defs>
    <style>
      .cls-1 {
        font-size: 10.964px;
        fill: #fff;
        text-anchor: end;
        font-family: TacticSansExd-Blk, TacticSansExd-Blk;
        text-transform: uppercase;
      }

      .cls-2 {
        fill: #eef1f4;
      }

      .cls-2, .cls-3 {
        fill-rule: evenodd;
      }

      .cls-3 {
        fill: #2bc8a5;
      }
    </style>
  </defs>
  <text id="Designed_developed_maintained_by" data-name="Designed developed maintained by" class="cls-1" transform="translate(317.689 65.441) scale(2.67)"><tspan x="0">Designed</tspan><tspan x="0" dy="13.157">developed</tspan><tspan x="0" dy="13.157">maintained by</tspan></text>
  <path id="Text" class="cls-2" d="M796.721,128.668l-19.539-14.91a1.227,1.227,0,0,0-1.507,0l-19.549,14.918c-1.115.863-2.729,0.446-2.729-.969V88.388c0-1.415,1.614-1.832,2.728-.969l19.55,14.918a1.229,1.229,0,0,0,1.507,0l19.539-14.91c1.114-.864,2.729-0.446,2.729.969v39.3C799.45,129.114,797.835,129.532,796.721,128.668Zm-27.667-21.605-5.719-4.453a1.1,1.1,0,0,0-1.773.878v9.119a1.1,1.1,0,0,0,1.773.878l5.719-4.453A1.247,1.247,0,0,0,769.054,107.063Zm22.217-3.557a1.1,1.1,0,0,0-1.772-.878l-5.7,4.435a1.248,1.248,0,0,0,0,1.969l5.7,4.435a1.1,1.1,0,0,0,1.772-.878v-9.083Zm-52.35,25.55h-5.657a2.189,2.189,0,0,1-2.186-2.191V89.309a2.189,2.189,0,0,1,2.186-2.191h5.657a2.189,2.189,0,0,1,2.186,2.191v37.557A2.189,2.189,0,0,1,738.921,129.056ZM715.709,97.172H702.55a1.835,1.835,0,0,0-1.833,1.838v27.9a2.144,2.144,0,0,1-2.141,2.145h-5.749a2.142,2.142,0,0,1-2.14-2.145V99.01a1.836,1.836,0,0,0-1.834-1.838H675.694a2.047,2.047,0,0,1-2.045-2.049V89.167a2.048,2.048,0,0,1,2.045-2.05h40.015a2.047,2.047,0,0,1,2.045,2.049v5.955A2.047,2.047,0,0,1,715.709,97.172Zm-54.873,31.9H628.054a3.787,3.787,0,0,1-2.985-1.458l-4.96-6.355a5.542,5.542,0,0,1-1.172-3.408V98.323a5.543,5.543,0,0,1,1.172-3.408l4.96-6.355a3.786,3.786,0,0,1,2.985-1.458h32.782a2.135,2.135,0,0,1,2.133,2.137v5.8a2.136,2.136,0,0,1-2.134,2.138H632.242a2.351,2.351,0,0,0-1.853.906l-0.842,1.081a2.642,2.642,0,0,0-.558,1.625v14.593a2.641,2.641,0,0,0,.558,1.625l0.843,1.081a2.346,2.346,0,0,0,1.852.906h28.593a2.136,2.136,0,0,1,2.134,2.137v5.8A2.135,2.135,0,0,1,660.836,129.071ZM602.33,104.846a2.1,2.1,0,0,1-2.921-.393L594.632,98.4a3.181,3.181,0,0,0-2.509-1.227h-16.35a1.88,1.88,0,0,0-1.878,1.882V126.99a2.064,2.064,0,0,1-2.061,2.066h-5.909a2.063,2.063,0,0,1-2.061-2.065V88.973a1.855,1.855,0,0,1,1.851-1.856L596.4,87.1a4.457,4.457,0,0,1,3.518,1.718l7.708,9.817a1.773,1.773,0,0,1-.336,2.508Zm-50.56,24.278h-6.258a2.618,2.618,0,0,1-2.313-1.392l-11.269-22.02a1.194,1.194,0,0,0-2.109,0l-11.269,22.02a2.619,2.619,0,0,1-2.313,1.392h-6.257a1.334,1.334,0,0,1-1.175-1.963l20.374-39.072a1.932,1.932,0,0,1,3.413,0l20.352,39.072A1.334,1.334,0,0,1,551.77,129.124Zm-69.709-21.8a1.145,1.145,0,0,0,0,1.557l15.883,17.486c0.972,1.07.67,2.716-.829,2.716H454.5c-1.5,0-1.8-1.646-.829-2.716l15.882-17.486a1.143,1.143,0,0,0,0-1.557l-15.891-17.5c-0.971-1.07-.669-2.716.83-2.716h42.632c1.5,0,1.8,1.646.829,2.716ZM471,121.9h9.624a1.086,1.086,0,0,0,.886-1.8l-4.724-5.224a1.337,1.337,0,0,0-1.949,0l-4.724,5.224A1.087,1.087,0,0,0,471,121.9Zm9.643-27.613h-9.663a1.087,1.087,0,0,0-.886,1.8l4.743,5.244a1.336,1.336,0,0,0,1.949,0l4.744-5.244A1.087,1.087,0,0,0,480.638,94.285Zm109.936,17.188a2.067,2.067,0,0,1,2.854.241l11.8,14.87a1.576,1.576,0,0,1-1.237,2.54l-7.871.032a3.377,3.377,0,0,1-2.693-1.324l-8.044-9.986a1.889,1.889,0,0,1,.349-2.679Z"/>
  <path id="Logo" class="cls-3" d="M469.092,43.854L460.1,47.987a5.593,5.593,0,0,1-3.23.439l-17.839-2.888a2.789,2.789,0,0,0-2.827,1.3L415.127,76.814a4.7,4.7,0,0,1-2.249,1.907l-4.8,1.939a1.675,1.675,0,0,1-2.248-1.132l-4.2-15.187a1.124,1.124,0,0,0-2.059-.284L378.21,98.163a3.509,3.509,0,0,0,.023,3.436l13.136,21.194a7.677,7.677,0,0,1,.953,2.865l1.649,13.32a1.254,1.254,0,0,1-2.1,1.071l-18.324-20.031c-0.88-1.1-1.4-2.794-1.7-5.762l-4.7-42.707a7.1,7.1,0,0,1,.565-3.974L383.654,26a1.771,1.771,0,0,0-.293-1.766L366.7,4.262a1.473,1.473,0,0,1,.717-2.357l7.605-1.638a3.856,3.856,0,0,1,2.954.2l31.365,14.312a8.672,8.672,0,0,0,2.578.7l33.689,5.039a8.924,8.924,0,0,1,3.036,1.037l14.446,8.08a6.67,6.67,0,0,1,2.7,2.826L470.09,41A2.1,2.1,0,0,1,469.092,43.854Zm-62.239,9.2L410.321,66.6a1.045,1.045,0,0,0,1.9.285l14.008-18.925a0.925,0.925,0,0,0-.983-1.443l-17.422,4.7A1.535,1.535,0,0,0,406.853,53.05ZM375.962,72.735l0.382,9a0.94,0.94,0,0,0,1.764.412l12.431-19.1a0.94,0.94,0,0,0-1.324-1.251l-12.232,8.783A2.553,2.553,0,0,0,375.962,72.735Zm3.9-15.783a0.732,0.732,0,0,0,1.1.864l14-8.933a1.31,1.31,0,0,0,.409-1.664l-5.773-11.73a0.765,0.765,0,0,0-1.394.07Zm17.3-39.005-11.627-5.323a0.808,0.808,0,0,0-.955,1.255l6.091,7.294a1.615,1.615,0,0,0,1.862.456l4.6-1.92A0.962,0.962,0,0,0,397.161,17.947Zm12.767,6.638a3.349,3.349,0,0,0-3.4-.486l-10.215,4.28a1.491,1.491,0,0,0-.75,2.055L402.2,43.391a1.754,1.754,0,0,0,2.142.856l20.043-5.556a1.183,1.183,0,0,0,.428-2.06Zm29.258,2.353-15.174-1.97a0.724,0.724,0,0,0-.541,1.285l9.927,7.866a1.607,1.607,0,0,0,2.267-.273l4.162-5.348A0.972,0.972,0,0,0,439.186,26.938Zm21.427,11.421-0.8-1.681a4.3,4.3,0,0,0-1.869-1.959l-8.413-4.471a1.986,1.986,0,0,0-2.519.56l-4.363,5.8a1.219,1.219,0,0,0,.776,1.936l13.014,2.134a4.192,4.192,0,0,0,2.4-.315l1.239-.559A1.077,1.077,0,0,0,460.613,38.359Zm-97.6,82.423-11.969,7.123a1.681,1.681,0,0,1-2.438-1.289l-0.754-5.762a4.246,4.246,0,0,1,.622-2.763l10.965-21.114a1.415,1.415,0,0,1,2.6.595l2.327,20.707A2.509,2.509,0,0,1,363.018,120.782Z"/>
</svg>
