<svg xmlns="http://www.w3.org/2000/svg" width="1000" height="238" viewBox="0 0 1000 238">
  <defs>
    <style>
      .cls-1 {
        fill: #fff;
      }

      .cls-1, .cls-2, .cls-3, .cls-4 {
        fill-rule: evenodd;
      }

      .cls-2 {
        fill: #9cff00;
      }

      .cls-3 {
        fill: #ff2ef3;
      }

      .cls-4 {
        fill: #00ffc6;
      }
    </style>
  </defs>
  <g>
    <path class="cls-1" d="M234.438,134.879l-12.272,45.9a6.3,6.3,0,0,1-1.628,2.826l-33.59,33.66a6.286,6.286,0,0,1-2.82,1.631l-45.885,12.321a6.268,6.268,0,0,1-3.257,0L89.1,218.894a6.288,6.288,0,0,1-2.82-1.631L52.689,183.6a6.3,6.3,0,0,1-1.629-2.826L38.764,134.8a6.321,6.321,0,0,1,0-3.264L51.058,85.557a6.307,6.307,0,0,1,1.628-2.826l33.59-33.66A6.287,6.287,0,0,1,89.1,47.44l45.885-12.321a6.28,6.28,0,0,1,3.257,0l30.925,8.437L151.828,62.14l-13.765-3.752a6.276,6.276,0,0,0-3.256,0l-34.223,9.189a6.288,6.288,0,0,0-2.821,1.632l-25.053,25.1a6.308,6.308,0,0,0-1.628,2.826l-9.169,34.293a6.318,6.318,0,0,0,0,3.264l9.171,34.292a6.311,6.311,0,0,0,1.628,2.827l25.054,25.1a6.3,6.3,0,0,0,2.821,1.632l34.223,9.188a6.289,6.289,0,0,0,3.257,0l34.222-9.19a6.282,6.282,0,0,0,2.821-1.632l25.052-25.1a6.311,6.311,0,0,0,1.629-2.826L210.9,134.92a2.061,2.061,0,0,1,1.989-1.53l20.4-.01A1.19,1.19,0,0,1,234.438,134.879Z"/>
    <path id="Line_1" data-name="Line 1" class="cls-2" d="M143.171,167.982l4.527,12.184a1.662,1.662,0,0,1-.943,2.122l-134.6,53.4A1.654,1.654,0,0,1,10,234.723L5.471,222.539a1.661,1.661,0,0,1,.942-2.122l134.6-53.4A1.655,1.655,0,0,1,143.171,167.982Z"/>
    <path id="Line_2" data-name="Line 2" class="cls-3" d="M197.326,5.561l9.246,8.068a1.661,1.661,0,0,1,.134,2.37l-73.645,80.77a1.653,1.653,0,0,1-2.315.127l-9.966-8.773a1.662,1.662,0,0,1-.12-2.377L195.027,5.682A1.653,1.653,0,0,1,197.326,5.561Z"/>
    <path class="cls-4" d="M273.962,41.6l-7.409,25.835A2.66,2.66,0,0,1,265,69.164L199.847,95.789a3.3,3.3,0,0,0-1.923,2.145l-7.175,25.022a3.435,3.435,0,0,1-2,2.233l-65.054,26.583a1.209,1.209,0,0,1-1.617-1.455l7.408-25.835a2.659,2.659,0,0,1,1.55-1.729l65.156-26.625a3.3,3.3,0,0,0,1.923-2.146l7.176-25.022a3.431,3.431,0,0,1,2-2.233l65.053-26.583A1.21,1.21,0,0,1,273.962,41.6Z"/>
  </g>
  <path class="cls-1" d="M708.528,112.347H678.079a1.063,1.063,0,0,0-1.064,1.061v53.91a1.063,1.063,0,0,1-1.063,1.062H659.365a1.063,1.063,0,0,1-1.064-1.062v-53.91a1.062,1.062,0,0,0-1.064-1.061H626.788a1.063,1.063,0,0,1-1.064-1.062V94.731a1.063,1.063,0,0,1,1.064-1.062h81.74a1.063,1.063,0,0,1,1.064,1.062v16.554A1.063,1.063,0,0,1,708.528,112.347ZM643.277,168.38H624.161a2.267,2.267,0,0,1-2.06-1.32l-4.822-10.5a2.267,2.267,0,0,0-2.06-1.32H575.437a2.269,2.269,0,0,0-2.061,1.32l-4.821,10.5a2.267,2.267,0,0,1-2.06,1.32H547.379a1.009,1.009,0,0,1-.911-1.447L581.35,94.626a1.7,1.7,0,0,1,1.526-.957h24.9a1.7,1.7,0,0,1,1.526.957l34.882,72.307A1.009,1.009,0,0,1,643.277,168.38Zm-35.692-32.945L596.12,110.457a0.872,0.872,0,0,0-1.584,0l-11.465,24.978a0.793,0.793,0,0,0,.723,1.123h23.068A0.793,0.793,0,0,0,607.585,135.435Zm-69.409,1.623a1.1,1.1,0,0,0,0,1.566l2.395,2.39a1.83,1.83,0,0,1,.537,1.3l-0.066,24.111a1.559,1.559,0,0,1-1.561,1.553H519.6a1.559,1.559,0,0,1-1.561-1.549l-0.082-16.413a1.558,1.558,0,0,0-.389-1.022l-1.19-1.348a1.563,1.563,0,0,0-1.171-.529H473.737a1.227,1.227,0,0,0-1.228,1.225v18.482a1.558,1.558,0,0,1-1.56,1.557H453.258a1.558,1.558,0,0,1-1.56-1.557v-71.6a1.558,1.558,0,0,1,1.56-1.557h74.286a1.563,1.563,0,0,1,1.1.456l12.007,11.983a1.558,1.558,0,0,1,.457,1.1V133.37a1.833,1.833,0,0,1-.538,1.3Zm-20.224-22.022a2.173,2.173,0,0,0-.652-1.543l-0.757-.741a2.18,2.18,0,0,0-1.526-.623H473.673a1.163,1.163,0,0,0-1.164,1.162v14.2a1.163,1.163,0,0,0,1.164,1.162h41.5a2.178,2.178,0,0,0,1.539-.636l0.639-.637a2.167,2.167,0,0,0,.638-1.545Zm-73.306-2.689H414.518a1.223,1.223,0,0,0-1.224,1.222v53.589a1.223,1.223,0,0,1-1.225,1.222H395.8a1.224,1.224,0,0,1-1.225-1.222V113.569a1.223,1.223,0,0,0-1.224-1.222H363.227A1.224,1.224,0,0,1,362,111.125V94.891a1.224,1.224,0,0,1,1.225-1.222h81.419a1.223,1.223,0,0,1,1.225,1.222v16.234A1.223,1.223,0,0,1,444.646,112.347Zm-99.905,54.735a2.794,2.794,0,0,1-1.975.816h-73.99a1.314,1.314,0,0,1-1.316-1.31l-0.021-15.68a1.314,1.314,0,0,1,1.315-1.314h62.193a1.932,1.932,0,0,0,1.364-.563l0.849-.847a1.926,1.926,0,0,0,.566-1.378l-0.031-3.99a1.922,1.922,0,0,0-.578-1.359l-0.906-.888a1.932,1.932,0,0,0-1.353-.552H281.522a2.8,2.8,0,0,1-1.976-.816l-12.109-12.086h0V107.72a2.774,2.774,0,0,1,.814-1.962l11.3-11.272a2.8,2.8,0,0,1,1.976-.817h73.99a1.313,1.313,0,0,1,1.315,1.311l0.022,15.68a1.314,1.314,0,0,1-1.315,1.314H293.6a2.563,2.563,0,0,0-1.808.747l-0.479.478a2.549,2.549,0,0,0-.75,1.826l0.027,3.467a2.556,2.556,0,0,0,.766,1.8l0.537,0.526a2.563,2.563,0,0,0,1.792.731h49.08a2.8,2.8,0,0,1,1.976.817l11.294,11.273a2.766,2.766,0,0,1,.814,1.961v18.247a2.768,2.768,0,0,1-.814,1.961Zm585.728-46.814,0.537,0.526a2.561,2.561,0,0,0,1.792.732h49.08a2.8,2.8,0,0,1,1.976.816l11.295,11.273a2.772,2.772,0,0,1,.814,1.961v18.247a2.77,2.77,0,0,1-.814,1.961l-11.295,11.273a2.8,2.8,0,0,1-1.976.817h-73.99a1.314,1.314,0,0,1-1.315-1.311l-0.022-15.679a1.313,1.313,0,0,1,1.315-1.314h62.193a1.933,1.933,0,0,0,1.364-.564l0.849-.847a1.924,1.924,0,0,0,.566-1.378l-0.031-3.989a1.926,1.926,0,0,0-.578-1.36l-0.906-.887a1.932,1.932,0,0,0-1.352-.552H920.634a2.8,2.8,0,0,1-1.976-.817L906.55,127.091h0V107.7a2.768,2.768,0,0,1,.814-1.961l11.295-11.273a2.8,2.8,0,0,1,1.975-.817h73.99a1.313,1.313,0,0,1,1.315,1.311l0.022,15.679a1.314,1.314,0,0,1-1.315,1.315H932.713a2.554,2.554,0,0,0-1.807.747l-0.48.477a2.554,2.554,0,0,0-.75,1.827l0.027,3.467A2.552,2.552,0,0,0,930.469,120.268ZM888.54,146.2a2.864,2.864,0,0,1-2.02.835H833.341a1.31,1.31,0,0,0-1.312,1.309v18.732a1.311,1.311,0,0,1-1.312,1.31H812.529a1.311,1.311,0,0,1-1.312-1.31V94.978a1.311,1.311,0,0,1,1.312-1.309h74a2.862,2.862,0,0,1,2.021.835l11.4,11.383a2.306,2.306,0,0,1,.678,1.634v25.651a2.3,2.3,0,0,1-.678,1.633Zm-11.069-31.152a2.186,2.186,0,0,0-.657-1.556l-0.746-.731a2.2,2.2,0,0,0-1.538-.628H833.223a1.193,1.193,0,0,0-1.194,1.192v14.214a1.193,1.193,0,0,0,1.194,1.192h41.394a2.2,2.2,0,0,0,1.551-.641l0.7-.7a2.186,2.186,0,0,0,.643-1.557Zm-84.295,51.575a3.32,3.32,0,0,1-2.346.969H730.17a3.32,3.32,0,0,1-2.346-.969L716.84,155.656a3.308,3.308,0,0,1-.972-2.341V107.948a3.308,3.308,0,0,1,.972-2.341l10.984-10.963a3.321,3.321,0,0,1,2.346-.97h60.66a3.321,3.321,0,0,1,2.346.97l10.984,10.963a3.308,3.308,0,0,1,.972,2.341v45.367a3.308,3.308,0,0,1-.972,2.341Zm-11.642-53.138-1.029-1.025a1.633,1.633,0,0,0-1.155-.477h-37.7a1.633,1.633,0,0,0-1.155.477l-1.029,1.025a1.633,1.633,0,0,0-.479,1.156l0.031,28.352h0l0,0.179,0,0.178h0l-0.026,3.274a1.626,1.626,0,0,0,.479,1.166l1.024,1.021a1.633,1.633,0,0,0,1.155.477h37.7a1.633,1.633,0,0,0,1.155-.477l1.024-1.021a1.626,1.626,0,0,0,.479-1.166l-0.026-3.274h0v-0.357h0l0.031-28.352A1.633,1.633,0,0,0,781.534,113.481Z"/>
</svg>
