<svg id="Logo_X" data-name="Logo X" xmlns="http://www.w3.org/2000/svg" width="512" height="512" viewBox="0 0 512 512">
  <defs>
    <style>
      .cls-1 {
        fill: #21d6d1;
        fill-rule: evenodd;
      }
    </style>
  </defs>
  <path id="X" class="cls-1" d="M494.525,76.829L166.418,388.9a20.841,20.841,0,0,1-4.64,3.6,41.681,41.681,0,0,1-6.848,2.882l-131.3,44.443a3.363,3.363,0,0,1-3.871-1.016l-3.237-4.823a3.151,3.151,0,0,1,.63-4.157l173.323-132.3a1.36,1.36,0,0,0,.086-2.077L106.7,219.285a1.739,1.739,0,0,1-.014-2.549l7.835-7.274a4.5,4.5,0,0,1,3.065-1.209l80.152,0.082a7.534,7.534,0,0,1,5.646,2.142l46.132,40.209a2.277,2.277,0,0,0,2.875.109L490.367,72.341a1.3,1.3,0,0,1,1.878.175l2.575,2.843A1.116,1.116,0,0,1,494.525,76.829Zm-189.575,226,81.593,75.526a2.862,2.862,0,0,1,.05,4.131l-6.5,6.327a6.881,6.881,0,0,1-4.808,1.963l-79.846-.083a5.67,5.67,0,0,1-3.854-1.527L253.339,353.6a2.334,2.334,0,0,1-.048-3.353l48.02-47.352A2.622,2.622,0,0,1,304.95,302.832Z"/>
</svg>
