<svg xmlns="http://www.w3.org/2000/svg" width="1387" height="300" viewBox="0 0 1387 300">
  <defs>
    <style>
      .cls-1 {
        fill: #16eade;
      }

      .cls-1, .cls-2 {
        fill-rule: evenodd;
      }

      .cls-2 {
        fill: #fff;
      }
    </style>
  </defs>
  <path class="cls-1" d="M133.527,185.184a2.418,2.418,0,0,0-.409,3.348L176.68,245.55l6.379,16.575-13.958-5.1-45.785-60.419a2.43,2.43,0,0,0-3.455-.421l-81.4,65.865,8.78-23.475,48.5-39.251c1.115-1.174-.183-2.726-1.569-2.448-0.133.027-35.974,9.074-35.974,9.074l5.4-14.775s43.829-10.872,43.886-10.9c1.591-.685,1.188-2.7.555-3.806-0.022-.038-26.131-34.8-26.131-34.8l9.83-28.05,48.926,30.225,10.13,27.45Zm8.007-25.965-49.285-29.8a1.616,1.616,0,0,0-2.137,2.351l32.468,42.9a2.308,2.308,0,0,0,3.283.4L141.729,162.3A1.887,1.887,0,0,0,141.534,159.219Z"/>
  <path id="Battlespacex" class="cls-2" d="M1287.42,178.943l1.66,1.622a2.146,2.146,0,0,0,1.51.615h69.94a6.607,6.607,0,0,1,4.67,1.934l14.64,14.6a6.628,6.628,0,0,1,1.96,4.715v23.907a6.624,6.624,0,0,1-1.96,4.714l-14.64,14.6a6.607,6.607,0,0,1-4.67,1.934H1256.04a2.444,2.444,0,0,1-2.44-2.451l-0.03-21.319a2.448,2.448,0,0,1,2.44-2.457h88.73a2.575,2.575,0,0,0,1.81-.749l1.33-1.325a2.608,2.608,0,0,0,.76-1.849l-0.05-5.86a2.606,2.606,0,0,0-.78-1.824l-1.41-1.382a2.555,2.555,0,0,0-1.79-.733h-69.77a6.652,6.652,0,0,1-4.68-1.934l-14.64-14.6a6.67,6.67,0,0,1-1.96-4.715V162.482a6.669,6.669,0,0,1,1.96-4.714l14.64-14.6a6.651,6.651,0,0,1,4.68-1.933h104.48a2.451,2.451,0,0,1,2.45,2.45L1381.8,165a2.456,2.456,0,0,1-2.45,2.458h-88.89a2.147,2.147,0,0,0-1.52.627l-1.58,1.57a2.143,2.143,0,0,0-.63,1.55l0.05,6.209A2.141,2.141,0,0,0,1287.42,178.943Zm-67.87,36.8a6.768,6.768,0,0,1-4.79,1.983h-74.32a2.729,2.729,0,0,0-2.72,2.735v24.2a3.649,3.649,0,0,1-3.65,3.654h-22.56a3.647,3.647,0,0,1-3.64-3.654v-99.3a4.093,4.093,0,0,1,4.09-4.1h102.81a6.768,6.768,0,0,1,4.79,1.983l14.54,14.493a6.852,6.852,0,0,1,2.01,4.837V196.4a6.852,6.852,0,0,1-2.01,4.837ZM1202.89,171.7a2.647,2.647,0,0,0-.8-1.893l-1.36-1.33a2.636,2.636,0,0,0-1.85-.756h-58.8a2.361,2.361,0,0,0-2.36,2.369v19.043a2.361,2.361,0,0,0,2.36,2.369h58.93a2.619,2.619,0,0,0,1.86-.772l1.29-1.283a2.651,2.651,0,0,0,.79-1.9Zm-21.72-80.7-12.65-13.9-12.64,13.9h-15.77l18.78-19.186-17.45-19.08h15.18l11.9,13.372,11.91-13.372h15.18l-17.46,19.08,18.78,19.186h-15.76Zm-97.72-38.265h41.9v8.879H1095.2v6.131h28.57v7.928H1095.2V81.8h30.84v9.2h-42.59V52.729Zm6.72,110.256v63.581a7.761,7.761,0,0,1-2.28,5.5l-14,13.959a7.708,7.708,0,0,1-5.45,2.254H983.88a7.716,7.716,0,0,1-5.449-2.254l-14-13.959a7.761,7.761,0,0,1-2.28-5.5V162.984a7.759,7.759,0,0,1,2.28-5.5l14-13.959a7.717,7.717,0,0,1,5.449-2.255h84.56a7.709,7.709,0,0,1,5.45,2.255l14,13.959A7.759,7.759,0,0,1,1090.17,162.984Zm-33.15,8.693a3.208,3.208,0,0,0-.95-2.282l-0.96-.96a3.228,3.228,0,0,0-2.26-.934H999.479a3.2,3.2,0,0,0-2.259.934l-0.964.96a3.222,3.222,0,0,0-.947,2.282v46.2a3.218,3.218,0,0,0,.947,2.281l0.964,0.961a3.2,3.2,0,0,0,2.259.934h53.371a3.232,3.232,0,0,0,2.26-.934l0.96-.961a3.2,3.2,0,0,0,.95-2.281v-46.2Zm6.12-83.616a10.4,10.4,0,0,1-4.29,2.458,23.7,23.7,0,0,1-7.19.9h-18.94a38.952,38.952,0,0,1-7.09-.581,13.293,13.293,0,0,1-5.32-2.141,9.762,9.762,0,0,1-3.33-4.228,17.727,17.727,0,0,1-1.14-6.9V66.153a17.772,17.772,0,0,1,1.14-6.871,9.744,9.744,0,0,1,3.33-4.255,13.316,13.316,0,0,1,5.32-2.141,38.943,38.943,0,0,1,7.09-.581h13.81a53.966,53.966,0,0,1,10,.74,12.313,12.313,0,0,1,5.71,2.431,7.864,7.864,0,0,1,2.54,4.44,31.829,31.829,0,0,1,.53,6.818h-11.75V65.677a2.858,2.858,0,0,0-1.42-2.8,9.1,9.1,0,0,0-4.08-.74h-12.8a11.121,11.121,0,0,0-3.76.529,4.946,4.946,0,0,0-2.22,1.533,5.615,5.615,0,0,0-1.08,2.4,15.4,15.4,0,0,0-.29,3.2v4.123a20.124,20.124,0,0,0,.26,3.541,5.05,5.05,0,0,0,1.01,2.378,4.256,4.256,0,0,0,2.06,1.321,11.294,11.294,0,0,0,3.38.423h12.54a28.207,28.207,0,0,0,3.28-.159,4.643,4.643,0,0,0,2.12-.713,3.043,3.043,0,0,0,1.14-1.586,9.573,9.573,0,0,0,.34-2.828h11.74v3.594a17.545,17.545,0,0,1-.55,4.519A8.1,8.1,0,0,1,1063.14,88.061Zm-77.927-3.832H961.407l-3.439,6.765h-13.12l20.738-38.265h15.289l21.055,38.265H988.863ZM973.2,61.608L965.8,75.984h15.024ZM945.72,164.9a3.123,3.123,0,0,1-3.118,3.127H902.117A3.122,3.122,0,0,0,899,171.155v74.033a3.123,3.123,0,0,1-3.118,3.127H875.276a3.123,3.123,0,0,1-3.118-3.127V171.155a3.123,3.123,0,0,0-3.118-3.127H828.554a3.122,3.122,0,0,1-3.117-3.127V144.393a3.122,3.122,0,0,1,3.117-3.127H942.6a3.123,3.123,0,0,1,3.118,3.127V164.9ZM932.283,77.384a9.4,9.4,0,0,1-3.306,2.88,10.863,10.863,0,0,1-5.185,1.11h-23.33v9.619H888.718V52.729h32.006a19.982,19.982,0,0,1,6.877,1,10.287,10.287,0,0,1,4.233,2.748,9.837,9.837,0,0,1,2.142,4.149,21.217,21.217,0,0,1,.609,5.206v3.277a18.246,18.246,0,0,1-.529,4.334A11.551,11.551,0,0,1,932.283,77.384Zm-9.76-11.073a4.077,4.077,0,0,0-1.058-3.013q-1.059-1.057-3.756-1.057H900.462v9.619h18.252a3.4,3.4,0,0,0,2.936-1.189,4.732,4.732,0,0,0,.873-2.88v-1.48ZM867.186,89.276a14.314,14.314,0,0,1-5.819,1.718,87.7,87.7,0,0,1-9.576.423H837.56a44.623,44.623,0,0,1-6.851-.449,12.2,12.2,0,0,1-4.629-1.586,6.7,6.7,0,0,1-2.645-3.145,13.308,13.308,0,0,1-.846-5.127V78.468h11.744a7.254,7.254,0,0,0,.318,2.4,2.68,2.68,0,0,0,.952,1.321,3.33,3.33,0,0,0,1.587.555,20.293,20.293,0,0,0,2.222.106H853.8q0.951,0,1.851-.079a4.621,4.621,0,0,0,1.614-.423,2.8,2.8,0,0,0,1.137-.978,3.113,3.113,0,0,0,.423-1.744,3.574,3.574,0,0,0-.449-1.956,3.362,3.362,0,0,0-2.116-1.057,27.9,27.9,0,0,0-4.973-.449q-3.308-.079-8.967-0.079a91.6,91.6,0,0,1-10.528-.476,14.843,14.843,0,0,1-5.952-1.744,5.7,5.7,0,0,1-2.618-3.515,23.643,23.643,0,0,1-.582-5.787,34.577,34.577,0,0,1,.317-4.836,7.068,7.068,0,0,1,1.825-3.885,10.217,10.217,0,0,1,4.629-2.59,31.061,31.061,0,0,1,8.676-.951h16.4a31.057,31.057,0,0,1,8.015.819,9.971,9.971,0,0,1,4.444,2.326,6.915,6.915,0,0,1,1.931,3.568,22.944,22.944,0,0,1,.423,4.6v1.216H857.558a10.42,10.42,0,0,0-.133-1.8,2.019,2.019,0,0,0-.687-1.216,3.829,3.829,0,0,0-1.72-.714,16.614,16.614,0,0,0-3.174-.238H838.83a6.345,6.345,0,0,0-3.227.713,2.415,2.415,0,0,0-1.217,2.246,3.746,3.746,0,0,0,.423,1.956,2.813,2.813,0,0,0,1.878,1,23.3,23.3,0,0,0,4.233.37q2.777,0.053,7.486.053,6.824,0,11.215.317a18.31,18.31,0,0,1,6.877,1.585,6.9,6.9,0,0,1,3.439,3.7,18.587,18.587,0,0,1,.952,6.607,19.914,19.914,0,0,1-.793,6.21A6.641,6.641,0,0,1,867.186,89.276ZM763.02,52.729h41.9v8.879H774.764v6.131h28.568v7.928H774.764V81.8h30.843v9.2H763.02V52.729ZM796.2,144.781l48.217,99.852a2.564,2.564,0,0,1-2.3,3.682H816.651a3.544,3.544,0,0,1-3.219-2.067l-6.3-13.719a5.224,5.224,0,0,0-4.745-3.047H747.847a5.224,5.224,0,0,0-4.745,3.047l-6.3,13.719a3.544,3.544,0,0,1-3.219,2.067H708.117a2.563,2.563,0,0,1-2.3-3.682l48.217-99.852a6.211,6.211,0,0,1,5.592-3.515h30.98A6.212,6.212,0,0,1,796.2,144.781Zm-22.965,22.165-15.127,32.926a2.008,2.008,0,0,0,1.818,2.848h30.383a2.008,2.008,0,0,0,1.819-2.848L777,166.946A2.07,2.07,0,0,0,773.233,166.946ZM709.323,52.729h11.745V81.163h26.4v9.831H709.323V52.729ZM677.105,90.994H665.361V62.242H648.855V52.729h44.756v9.514H677.105V90.994Zm-57.664,0H607.7V62.242h-16.5V52.729h44.756v9.514H619.441V90.994Zm-53.009-6.765H542.626l-3.439,6.765h-13.12L546.8,52.729h15.289l21.055,38.265H570.082ZM554.423,61.608l-7.407,14.376h15.025ZM510.566,74.345q1.587,2.168,1.587,6.5A12.9,12.9,0,0,1,511.28,86a7.3,7.3,0,0,1-2.433,3.092,9.185,9.185,0,0,1-3.7,1.506,25.79,25.79,0,0,1-4.682.4h-37.4V52.729h33.8a32.812,32.812,0,0,1,6.111.5,11.549,11.549,0,0,1,4.364,1.691,7.2,7.2,0,0,1,2.592,3.118,11.769,11.769,0,0,1,.847,4.73,15.588,15.588,0,0,1-.423,4.017,6.813,6.813,0,0,1-1.191,2.484,4.974,4.974,0,0,1-1.8,1.427,17.541,17.541,0,0,1-2.249.846V71.7Q508.978,72.178,510.566,74.345Zm-12.432-11.76a4.233,4.233,0,0,0-2.539-.661H474.8V67.9H495.6a4.226,4.226,0,0,0,2.539-.661,2.671,2.671,0,0,0,.9-2.3A2.74,2.74,0,0,0,498.134,62.586Zm0.794,13.847a6.654,6.654,0,0,0-3.069-.608H474.8V81.8h21.055a7.189,7.189,0,0,0,3.069-.555A2.236,2.236,0,0,0,500.091,79,2.619,2.619,0,0,0,498.928,76.433Zm43.9,67.96V164.9a3.123,3.123,0,0,1-3.118,3.127H499.972a3.874,3.874,0,0,0-3.868,3.879v73.281a3.123,3.123,0,0,1-3.118,3.127h-20.6a3.123,3.123,0,0,1-3.118-3.127V171.907a3.874,3.874,0,0,0-3.867-3.879H425.66a3.123,3.123,0,0,1-3.118-3.127V144.393a3.123,3.123,0,0,1,3.118-3.127H539.708A3.123,3.123,0,0,1,542.826,144.393ZM389.6,245.672a6.687,6.687,0,0,1-4.721,1.953H280.427a2.451,2.451,0,0,1-2.447-2.451l-0.028-21.319A2.45,2.45,0,0,1,280.4,221.4h88.231a3.758,3.758,0,0,0,2.65-1.095l0.627-.625a3.777,3.777,0,0,0,1.11-2.7l-0.038-4.861a3.772,3.772,0,0,0-1.134-2.668l-0.71-.7a3.756,3.756,0,0,0-2.626-1.072H299.255a6.694,6.694,0,0,1-4.728-1.956L279.9,191.139a6.661,6.661,0,0,1-1.955-4.715V162.517A6.658,6.658,0,0,1,279.9,157.8l14.627-14.585a6.688,6.688,0,0,1,4.721-1.952H403.705a2.45,2.45,0,0,1,2.447,2.45l0.029,21.319a2.451,2.451,0,0,1-2.447,2.458H315.5a3.758,3.758,0,0,0-2.649,1.095l-0.628.626a3.774,3.774,0,0,0-1.11,2.7l0.039,4.861a3.777,3.777,0,0,0,1.133,2.668L313,180.142a3.751,3.751,0,0,0,2.626,1.073h69.253a6.694,6.694,0,0,1,4.728,1.956l14.34,14.3a7.619,7.619,0,0,1,2.238,5.4v23.108a7.621,7.621,0,0,1-2.238,5.4ZM219.229,299.435L113.707,262.891a7.063,7.063,0,0,0-4.6-.006L2.6,299.45a2.008,2.008,0,0,1-2.537-2.592L108.805,1.621a2.256,2.256,0,0,1,4.234,0L221.772,296.844A2.009,2.009,0,0,1,219.229,299.435Zm-39.411-42.941L112.669,68.07a1.824,1.824,0,0,0-3.436,0L42.08,256.506a1.668,1.668,0,0,0,2.126,2.132l64.866-22.894a6.557,6.557,0,0,1,4.384.006l64.232,22.874A1.667,1.667,0,0,0,179.818,256.494ZM562.6,141.266H667.148a6.56,6.56,0,0,1,4.631,1.915l14.672,14.63a6.6,6.6,0,0,1,1.937,4.671v34.5a5.442,5.442,0,0,1-1.6,3.854l-1.5,1.5a3.149,3.149,0,0,0,0,4.457l3.1,3.09-0.1,35.237a2.631,2.631,0,0,1-2.627,2.628H657.919a2.632,2.632,0,0,1-2.628-2.622l-0.114-22.807a3.05,3.05,0,0,0-.763-2l-1.266-1.434a3.031,3.031,0,0,0-2.271-1.025H592.939A2.943,2.943,0,0,0,590,220.8v24.885a2.631,2.631,0,0,1-2.628,2.635H562.779a2.631,2.631,0,0,1-2.627-2.635V143.717A2.447,2.447,0,0,1,562.6,141.266ZM590,188.8a2.592,2.592,0,0,0,2.588,2.595h58.393a3.635,3.635,0,0,0,2.565-1.06l0.606-.6a3.657,3.657,0,0,0,1.075-2.6l-0.053-15.021a3.651,3.651,0,0,0-1.1-2.6l-0.774-.758a3.636,3.636,0,0,0-2.542-1.038H592.588a2.592,2.592,0,0,0-2.588,2.6V188.8Z"/>
</svg>
