<?xml version="1.0" encoding="UTF-8"?><svg id="Layer_1" xmlns="http://www.w3.org/2000/svg" viewBox="0 0 183.51 129.83"><defs><style>.cls-1{fill:#fff;}.cls-1,.cls-2{fill-rule:evenodd;}.cls-2{fill:#dcdee2;}</style></defs><path id="X" class="cls-1" d="M183.31,1.7L54.84,111.78c-.54.5-1.14.92-1.78,1.27-.82.41-1.66.75-2.53,1.02l-48.14,15.68c-.47.2-1.02.06-1.33-.36l-.95-1.7c-.25-.52-.08-1.14.39-1.47l66.54-46.66c.23-.14.3-.45.15-.68-.01-.02-.03-.04-.04-.05l-26.51-26.87c-.22-.26-.19-.65.07-.88,0,0,.02-.02.03-.02l3.06-2.57c.32-.27.72-.42,1.13-.43l28.28.03c.72-.05,1.42.23,1.91.76l14.65,14.18c.29.25.71.27,1.01.04L182.02.12c.18-.17.46-.15.63.03,0,0,.02.02.03.03l.79,1c.08.19.01.41-.16.52ZM105.94,81.44c.35-.35.92-.36,1.29-.02l25.73,26.64c.36.43.31,1.08-.13,1.44,0,0-.02.01-.02.02l-2.55,2.23c-.49.44-1.12.68-1.78.69l-28.18-.03c-.49,0-.96-.19-1.3-.54l-12.05-12.55c-.29-.35-.25-.88.11-1.17,0,0,0,0,.01-.01l18.87-16.7Z"/><path id="X-2" class="cls-2" d="M183.47,1.15c.09.18.03.4-.14.51L54.84,111.76c-.52.49-1.11.91-1.74,1.25-.83.41-1.69.76-2.57,1.04l-19.47,6.33,42.82-33.26c.34-.27.63-.6.84-.97l4.07-7.13c.14-.25.35-.45.6-.58l16.33-8.68c.17-.09.33-.19.48-.31L183.37,1.04l.1.11ZM40.72,52l10.3,2.53c.33.08.63.24.88.46l21.91,19.03c.19.19.18.49,0,.68-.03.03-.05.05-.08.07l-6.61,4.72c.18-.18.21-.47.06-.68-.05-.05-26.45-26.81-26.45-26.81ZM94.3,91.76l23.47,20.63-17.55-.02c-.49,0-.96-.19-1.3-.54l-11.93-12.52c-.29-.35-.25-.88.11-1.17,0,0,0,0,.01-.01l7.19-6.36Z"/></svg>