<svg xmlns="http://www.w3.org/2000/svg" width="512" height="512" viewBox="0 0 512 512">
  <defs>
    <style>
      .cls-1 {
        fill-rule: evenodd;
      }
    </style>
  </defs>
  <path class="cls-1" d="M155,200.435H97.216a8.866,8.866,0,0,0-8.93,8.8V425.419a8.865,8.865,0,0,0,8.93,8.8H155a8.865,8.865,0,0,0,8.93-8.8V209.235A8.866,8.866,0,0,0,155,200.435Zm196.025-2.877c-40.7,0-53.15,8.631-72.641,33.337v-21.66a8.858,8.858,0,0,0-8.93-8.8H211.584a8.858,8.858,0,0,0-8.929,8.8V425.5a8.858,8.858,0,0,0,8.929,8.8h57.872a8.859,8.859,0,0,0,8.93-8.8V324.476c0-16.076,2.4-64.051,38.553-64.051,45.68,0,41.558,46.791,41.558,46.791V425.588a8.858,8.858,0,0,0,8.93,8.8H425.3a8.857,8.857,0,0,0,8.929-8.8V296.978c0-39.007-7.9-99.335-83.03-99.335Zm-224.6-23.9c27.146,0,49.338-21.5,49.567-48.025s-21.589-48.024-48.735-48.024S77.925,99.114,77.7,125.637,99.285,173.662,126.43,173.662Z"/>
</svg>
