<svg xmlns="http://www.w3.org/2000/svg" width="512" height="512" viewBox="0 0 512 512">
  <defs>
    <style>
      .cls-1 {
        fill-rule: evenodd;
      }
    </style>
  </defs>
  <path class="cls-1" d="M257,174.844c0,61.449-41.413,70.809-41.413,70.809S271.4,255.2,271.4,321.38c0,85.085-97.552,85.022-97.552,85.022H12.072V105.514H184.959S257,105.514,257,174.844ZM150.461,157.511H80.906v68.447h71.588C202.567,225.958,204.167,157.511,150.461,157.511ZM80.906,356.547h81.513c51.353,0,54.555-84.06-2.5-84.06H80.906v84.06ZM452.292,118.12H325.829v36.24H452.292V118.12Zm-63.234,56.929c-141.67,0-156.077,231.353,2.37,231.353,102.482,0,103.891-73.2,103.891-73.2H440.86s-6.2,27.574-49.417,27.574c-51.225,0-53.146-53.572-53.146-53.572h162s8-132.15-111.255-132.15h0.015Zm49.1,92.758h-97.92s4.8-45.694,43.222-45.694C441.084,222.113,438.154,267.807,438.154,267.807Z"/>
</svg>
