<svg xmlns="http://www.w3.org/2000/svg" width="512" height="512" viewBox="0 0 512 512">
  <defs>
    <style>
      .cls-1 {
        fill-rule: evenodd;
      }
    </style>
  </defs>
  <path class="cls-1" d="M208.442,104.909l-47.792,118.4a9.173,9.173,0,0,0,8.5,12.609h42.267a12.929,12.929,0,0,1,12.924,12.933v161.2a12.086,12.086,0,0,1-12.082,12.09H25.612A12.086,12.086,0,0,1,13.53,410.05V352.763q0-74.854,31.265-137.842l53.158-114.5A18.245,18.245,0,0,1,114.5,89.86h83.8A10.948,10.948,0,0,1,208.442,104.909Zm275.128,0-47.791,118.4a9.173,9.173,0,0,0,8.5,12.609h42.267a12.93,12.93,0,0,1,12.925,12.933v161.2a12.087,12.087,0,0,1-12.082,12.09H300.74a12.086,12.086,0,0,1-12.082-12.09V352.763q0-74.854,31.265-137.842l53.157-114.5A18.246,18.246,0,0,1,389.627,89.86h83.8A10.948,10.948,0,0,1,483.57,104.909Z"/>
</svg>
