<svg xmlns="http://www.w3.org/2000/svg" width="512" height="512" viewBox="0 0 512 512">
  <defs>
    <style>
      .cls-1 {
        fill-rule: evenodd;
      }
    </style>
  </defs>
  <path class="cls-1" d="M155.818,264.691a10.084,10.084,0,0,0,0-17.1l-82.4-51.341A21.494,21.494,0,0,1,65.242,169a202.647,202.647,0,0,1,13.093-23.635v-0.821l0.391,0.229C114.78,89.3,176.989,52.631,247.7,52.631c114.743,0,207.111,96.445,201.705,213.275-4.821,104.422-89.014,189.016-192.651,193.579-74.455,3.282-140.441-34.107-178.059-91.948l-0.391.23v-0.82a200.75,200.75,0,0,1-13.093-23.636,21.5,21.5,0,0,1,8.175-27.246l82.4-51.341Zm-21.2-85.119L224.9,235.709a23.537,23.537,0,0,1,.135,39.89l-90.423,57.077a14.05,14.05,0,0,0-3.55,20.746,150.638,150.638,0,0,0,116.666,55.346c85.593,0,154.608-71.595,151.351-158.586-3.029-80.655-69.374-145.718-149.462-146.67A150.6,150.6,0,0,0,131.359,158.5a14.17,14.17,0,0,0,3.289,21.075h-0.033Z"/>
</svg>
